mtllib model.mtl
usemtl Media
s off
v -0.09000000 0.00000000 0.01400000
v 0.09000000 0.00000000 0.01400000
v 0.09000000 0.13500000 0.01400000
v -0.09000000 0.00000000 0.01400000
v 0.09000000 0.13500000 0.01400000
v -0.09000000 0.13500000 0.01400000
v -0.09000000 0.13500000 -0.01400000
v 0.09000000 0.13500000 -0.01400000
v 0.09000000 0.00000000 -0.01400000
v -0.09000000 0.13500000 -0.01400000
v 0.09000000 0.00000000 -0.01400000
v -0.09000000 0.00000000 -0.01400000
v -0.09000000 0.00000000 -0.01400000
v 0.09000000 0.00000000 -0.01400000
v 0.09000000 0.00000000 0.01400000
v -0.09000000 0.00000000 -0.01400000
v 0.09000000 0.00000000 0.01400000
v -0.09000000 0.00000000 0.01400000
v 0.09000000 0.00000000 -0.01400000
v 0.09000000 0.13500000 -0.01400000
v 0.09000000 0.13500000 0.01400000
v 0.09000000 0.00000000 -0.01400000
v 0.09000000 0.13500000 0.01400000
v 0.09000000 0.00000000 0.01400000
v 0.09000000 0.13500000 -0.01400000
v -0.09000000 0.13500000 -0.01400000
v -0.09000000 0.13500000 0.01400000
v 0.09000000 0.13500000 -0.01400000
v -0.09000000 0.13500000 0.01400000
v 0.09000000 0.13500000 0.01400000
v -0.09000000 0.13500000 -0.01400000
v -0.09000000 0.00000000 -0.01400000
v -0.09000000 0.00000000 0.01400000
v -0.09000000 0.13500000 -0.01400000
v -0.09000000 0.00000000 0.01400000
v -0.09000000 0.13500000 0.01400000
vt 0.01953125 0.48828125
vt 0.44921875 0.48828125
vt 0.44921875 0.98046875
vt 0.01953125 0.48828125
vt 0.44921875 0.98046875
vt 0.01953125 0.98046875
vt 0.93359375 0.98046875
vt 0.50390625 0.98046875
vt 0.50390625 0.48828125
vt 0.93359375 0.98046875
vt 0.50390625 0.48828125
vt 0.93359375 0.48828125
vt 0.19140625 0.30078125
vt 0.62109375 0.30078125
vt 0.62109375 0.35546875
vt 0.19140625 0.30078125
vt 0.62109375 0.35546875
vt 0.19140625 0.35546875
vt 0.09765625 0.08203125
vt 0.15234375 0.08203125
vt 0.15234375 0.44921875
vt 0.09765625 0.08203125
vt 0.15234375 0.44921875
vt 0.09765625 0.44921875
vt 0.19140625 0.37890625
vt 0.62109375 0.37890625
vt 0.62109375 0.43359375
vt 0.19140625 0.37890625
vt 0.62109375 0.43359375
vt 0.19140625 0.43359375
vt 0.01953125 0.08203125
vt 0.07421875 0.08203125
vt 0.07421875 0.44921875
vt 0.01953125 0.08203125
vt 0.07421875 0.44921875
vt 0.01953125 0.44921875
vn 0.00000000 0.00000000 1.00000000
vn 0.00000000 0.00000000 1.00000000
vn 0.00000000 0.00000000 1.00000000
vn 0.00000000 0.00000000 1.00000000
vn 0.00000000 0.00000000 1.00000000
vn 0.00000000 0.00000000 1.00000000
vn 0.00000000 0.00000000 -1.00000000
vn 0.00000000 0.00000000 -1.00000000
vn 0.00000000 0.00000000 -1.00000000
vn 0.00000000 0.00000000 -1.00000000
vn 0.00000000 0.00000000 -1.00000000
vn 0.00000000 0.00000000 -1.00000000
vn 0.00000000 -1.00000000 0.00000000
vn 0.00000000 -1.00000000 0.00000000
vn 0.00000000 -1.00000000 0.00000000
vn 0.00000000 -1.00000000 0.00000000
vn 0.00000000 -1.00000000 0.00000000
vn 0.00000000 -1.00000000 0.00000000
vn 1.00000000 0.00000000 0.00000000
vn 1.00000000 0.00000000 0.00000000
vn 1.00000000 0.00000000 0.00000000
vn 1.00000000 0.00000000 0.00000000
vn 1.00000000 0.00000000 0.00000000
vn 1.00000000 0.00000000 0.00000000
vn 0.00000000 1.00000000 0.00000000
vn 0.00000000 1.00000000 0.00000000
vn 0.00000000 1.00000000 0.00000000
vn 0.00000000 1.00000000 0.00000000
vn 0.00000000 1.00000000 0.00000000
vn 0.00000000 1.00000000 0.00000000
vn -1.00000000 0.00000000 0.00000000
vn -1.00000000 0.00000000 0.00000000
vn -1.00000000 0.00000000 0.00000000
vn -1.00000000 0.00000000 0.00000000
vn -1.00000000 0.00000000 0.00000000
vn -1.00000000 0.00000000 0.00000000
f 1/1/1 2/2/2 3/3/3
f 4/4/4 5/5/5 6/6/6
f 7/7/7 8/8/8 9/9/9
f 10/10/10 11/11/11 12/12/12
f 13/13/13 14/14/14 15/15/15
f 16/16/16 17/17/17 18/18/18
f 19/19/19 20/20/20 21/21/21
f 22/22/22 23/23/23 24/24/24
f 25/25/25 26/26/26 27/27/27
f 28/28/28 29/29/29 30/30/30
f 31/31/31 32/32/32 33/33/33
f 34/34/34 35/35/35 36/36/36
