# THPS2 / reusable CD jewel case. Metres, +Y up, +Z front.
mtllib thps2_case.mtl
s off
usemtl PS1_case
v -0.0703000 0.0007000 0.0052000
v -0.0590000 0.0007000 0.0052000
v -0.0590000 0.1243000 0.0052000
v -0.0703000 0.0007000 0.0052000
v -0.0590000 0.1243000 0.0052000
v -0.0703000 0.1243000 0.0052000
v -0.0590000 0.0007000 0.0052000
v 0.0703000 0.0007000 0.0052000
v 0.0703000 0.1243000 0.0052000
v -0.0590000 0.0007000 0.0052000
v 0.0703000 0.1243000 0.0052000
v -0.0590000 0.1243000 0.0052000
v -0.0703000 0.1243000 -0.0052000
v -0.0590000 0.1243000 -0.0052000
v -0.0590000 0.0007000 -0.0052000
v -0.0703000 0.1243000 -0.0052000
v -0.0590000 0.0007000 -0.0052000
v -0.0703000 0.0007000 -0.0052000
v -0.0590000 0.1243000 -0.0052000
v 0.0703000 0.1243000 -0.0052000
v 0.0703000 0.0007000 -0.0052000
v -0.0590000 0.1243000 -0.0052000
v 0.0703000 0.0007000 -0.0052000
v -0.0590000 0.0007000 -0.0052000
v -0.0710000 0.0000000 0.0045000
v -0.0590000 0.0000000 0.0045000
v -0.0590000 0.0007000 0.0052000
v -0.0710000 0.0000000 0.0045000
v -0.0590000 0.0007000 0.0052000
v -0.0703000 0.0007000 0.0052000
v -0.0703000 0.0007000 -0.0052000
v -0.0590000 0.0007000 -0.0052000
v -0.0590000 0.0000000 -0.0045000
v -0.0703000 0.0007000 -0.0052000
v -0.0590000 0.0000000 -0.0045000
v -0.0710000 0.0000000 -0.0045000
v -0.0710000 0.0000000 -0.0045000
v -0.0590000 0.0000000 -0.0045000
v -0.0590000 0.0000000 0.0045000
v -0.0710000 0.0000000 -0.0045000
v -0.0590000 0.0000000 0.0045000
v -0.0710000 0.0000000 0.0045000
v -0.0590000 0.0000000 0.0045000
v 0.0710000 0.0000000 0.0045000
v 0.0703000 0.0007000 0.0052000
v -0.0590000 0.0000000 0.0045000
v 0.0703000 0.0007000 0.0052000
v -0.0590000 0.0007000 0.0052000
v -0.0590000 0.0007000 -0.0052000
v 0.0703000 0.0007000 -0.0052000
v 0.0710000 0.0000000 -0.0045000
v -0.0590000 0.0007000 -0.0052000
v 0.0710000 0.0000000 -0.0045000
v -0.0590000 0.0000000 -0.0045000
v -0.0590000 0.0000000 -0.0045000
v 0.0710000 0.0000000 -0.0045000
v 0.0710000 0.0000000 0.0045000
v -0.0590000 0.0000000 -0.0045000
v 0.0710000 0.0000000 0.0045000
v -0.0590000 0.0000000 0.0045000
v 0.0710000 0.0000000 0.0045000
v 0.0710000 0.1250000 0.0045000
v 0.0703000 0.1243000 0.0052000
v 0.0710000 0.0000000 0.0045000
v 0.0703000 0.1243000 0.0052000
v 0.0703000 0.0007000 0.0052000
v 0.0703000 0.0007000 -0.0052000
v 0.0703000 0.1243000 -0.0052000
v 0.0710000 0.1250000 -0.0045000
v 0.0703000 0.0007000 -0.0052000
v 0.0710000 0.1250000 -0.0045000
v 0.0710000 0.0000000 -0.0045000
v 0.0710000 0.0000000 -0.0045000
v 0.0710000 0.1250000 -0.0045000
v 0.0710000 0.1250000 0.0045000
v 0.0710000 0.0000000 -0.0045000
v 0.0710000 0.1250000 0.0045000
v 0.0710000 0.0000000 0.0045000
v 0.0710000 0.1250000 0.0045000
v -0.0590000 0.1250000 0.0045000
v -0.0590000 0.1243000 0.0052000
v 0.0710000 0.1250000 0.0045000
v -0.0590000 0.1243000 0.0052000
v 0.0703000 0.1243000 0.0052000
v 0.0703000 0.1243000 -0.0052000
v -0.0590000 0.1243000 -0.0052000
v -0.0590000 0.1250000 -0.0045000
v 0.0703000 0.1243000 -0.0052000
v -0.0590000 0.1250000 -0.0045000
v 0.0710000 0.1250000 -0.0045000
v 0.0710000 0.1250000 -0.0045000
v -0.0590000 0.1250000 -0.0045000
v -0.0590000 0.1250000 0.0045000
v 0.0710000 0.1250000 -0.0045000
v -0.0590000 0.1250000 0.0045000
v 0.0710000 0.1250000 0.0045000
v -0.0590000 0.1250000 0.0045000
v -0.0710000 0.1250000 0.0045000
v -0.0703000 0.1243000 0.0052000
v -0.0590000 0.1250000 0.0045000
v -0.0703000 0.1243000 0.0052000
v -0.0590000 0.1243000 0.0052000
v -0.0590000 0.1243000 -0.0052000
v -0.0703000 0.1243000 -0.0052000
v -0.0710000 0.1250000 -0.0045000
v -0.0590000 0.1243000 -0.0052000
v -0.0710000 0.1250000 -0.0045000
v -0.0590000 0.1250000 -0.0045000
v -0.0590000 0.1250000 -0.0045000
v -0.0710000 0.1250000 -0.0045000
v -0.0710000 0.1250000 0.0045000
v -0.0590000 0.1250000 -0.0045000
v -0.0710000 0.1250000 0.0045000
v -0.0590000 0.1250000 0.0045000
v -0.0710000 0.1250000 0.0045000
v -0.0710000 0.0000000 0.0045000
v -0.0703000 0.0007000 0.0052000
v -0.0710000 0.1250000 0.0045000
v -0.0703000 0.0007000 0.0052000
v -0.0703000 0.1243000 0.0052000
v -0.0703000 0.1243000 -0.0052000
v -0.0703000 0.0007000 -0.0052000
v -0.0710000 0.0000000 -0.0045000
v -0.0703000 0.1243000 -0.0052000
v -0.0710000 0.0000000 -0.0045000
v -0.0710000 0.1250000 -0.0045000
v -0.0710000 0.1250000 -0.0045000
v -0.0710000 0.0000000 -0.0045000
v -0.0710000 0.0000000 0.0045000
v -0.0710000 0.1250000 -0.0045000
v -0.0710000 0.0000000 0.0045000
v -0.0710000 0.1250000 0.0045000
vt 0.0195312 0.0820312
vt 0.0585938 0.0820312
vt 0.0585938 0.5117188
vt 0.0195312 0.0820312
vt 0.0585938 0.5117188
vt 0.0195312 0.5117188
vt 0.0195312 0.5507812
vt 0.4492188 0.5507812
vt 0.4492188 0.9804688
vt 0.0195312 0.5507812
vt 0.4492188 0.9804688
vt 0.0195312 0.9804688
vt 0.9726562 0.9804688
vt 0.9330992 0.9804688
vt 0.9330992 0.5507812
vt 0.9726562 0.9804688
vt 0.9330992 0.5507812
vt 0.9726562 0.5507812
vt 0.9330992 0.9804688
vt 0.4804688 0.9804688
vt 0.4804688 0.5507812
vt 0.9330992 0.9804688
vt 0.4804688 0.5507812
vt 0.9330992 0.5507812
vt 0.7695312 0.4882812
vt 0.7929688 0.4882812
vt 0.7929688 0.5117188
vt 0.7695312 0.4882812
vt 0.7929688 0.5117188
vt 0.7695312 0.5117188
vt 0.7695312 0.4882812
vt 0.7929688 0.4882812
vt 0.7929688 0.5117188
vt 0.7695312 0.4882812
vt 0.7929688 0.5117188
vt 0.7695312 0.5117188
vt 0.2382812 0.4023438
vt 0.2798746 0.4023438
vt 0.2798746 0.4414062
vt 0.2382812 0.4023438
vt 0.2798746 0.4414062
vt 0.2382812 0.4414062
vt 0.7695312 0.4882812
vt 0.7929688 0.4882812
vt 0.7929688 0.5117188
vt 0.7695312 0.4882812
vt 0.7929688 0.5117188
vt 0.7695312 0.5117188
vt 0.7695312 0.4882812
vt 0.7929688 0.4882812
vt 0.7929688 0.5117188
vt 0.7695312 0.4882812
vt 0.7929688 0.5117188
vt 0.7695312 0.5117188
vt 0.2798746 0.4023438
vt 0.7304688 0.4023438
vt 0.7304688 0.4414062
vt 0.2798746 0.4023438
vt 0.7304688 0.4414062
vt 0.2798746 0.4414062
vt 0.7695312 0.4882812
vt 0.7929688 0.4882812
vt 0.7929688 0.5117188
vt 0.7695312 0.4882812
vt 0.7929688 0.5117188
vt 0.7695312 0.5117188
vt 0.7695312 0.4882812
vt 0.7929688 0.4882812
vt 0.7929688 0.5117188
vt 0.7695312 0.4882812
vt 0.7929688 0.5117188
vt 0.7695312 0.5117188
vt 0.1601562 0.0820312
vt 0.1601562 0.5117188
vt 0.1992188 0.5117188
vt 0.1601562 0.0820312
vt 0.1992188 0.5117188
vt 0.1992188 0.0820312
vt 0.7695312 0.4882812
vt 0.7929688 0.4882812
vt 0.7929688 0.5117188
vt 0.7695312 0.4882812
vt 0.7929688 0.5117188
vt 0.7695312 0.5117188
vt 0.7695312 0.4882812
vt 0.7929688 0.4882812
vt 0.7929688 0.5117188
vt 0.7695312 0.4882812
vt 0.7929688 0.5117188
vt 0.7695312 0.5117188
vt 0.7304688 0.4726562
vt 0.2798746 0.4726562
vt 0.2798746 0.5117188
vt 0.7304688 0.4726562
vt 0.2798746 0.5117188
vt 0.7304688 0.5117188
vt 0.7695312 0.4882812
vt 0.7929688 0.4882812
vt 0.7929688 0.5117188
vt 0.7695312 0.4882812
vt 0.7929688 0.5117188
vt 0.7695312 0.5117188
vt 0.7695312 0.4882812
vt 0.7929688 0.4882812
vt 0.7929688 0.5117188
vt 0.7695312 0.4882812
vt 0.7929688 0.5117188
vt 0.7695312 0.5117188
vt 0.2798746 0.4726562
vt 0.2382812 0.4726562
vt 0.2382812 0.5117188
vt 0.2798746 0.4726562
vt 0.2382812 0.5117188
vt 0.2798746 0.5117188
vt 0.7695312 0.4882812
vt 0.7929688 0.4882812
vt 0.7929688 0.5117188
vt 0.7695312 0.4882812
vt 0.7929688 0.5117188
vt 0.7695312 0.5117188
vt 0.7695312 0.4882812
vt 0.7929688 0.4882812
vt 0.7929688 0.5117188
vt 0.7695312 0.4882812
vt 0.7929688 0.5117188
vt 0.7695312 0.5117188
vt 0.0898438 0.5117188
vt 0.0898438 0.0820312
vt 0.1289062 0.0820312
vt 0.0898438 0.5117188
vt 0.1289062 0.0820312
vt 0.1289062 0.5117188
vn 0.0000000 0.0000000 1.0000000
vn 0.0000000 0.0000000 1.0000000
vn 0.0000000 0.0000000 1.0000000
vn 0.0000000 0.0000000 1.0000000
vn 0.0000000 0.0000000 1.0000000
vn 0.0000000 0.0000000 1.0000000
vn 0.0000000 0.0000000 1.0000000
vn 0.0000000 0.0000000 1.0000000
vn 0.0000000 0.0000000 1.0000000
vn 0.0000000 0.0000000 1.0000000
vn 0.0000000 0.0000000 1.0000000
vn 0.0000000 0.0000000 1.0000000
vn 0.0000000 0.0000000 -1.0000000
vn 0.0000000 0.0000000 -1.0000000
vn 0.0000000 0.0000000 -1.0000000
vn 0.0000000 0.0000000 -1.0000000
vn 0.0000000 0.0000000 -1.0000000
vn 0.0000000 0.0000000 -1.0000000
vn 0.0000000 0.0000000 -1.0000000
vn 0.0000000 0.0000000 -1.0000000
vn 0.0000000 0.0000000 -1.0000000
vn 0.0000000 0.0000000 -1.0000000
vn 0.0000000 0.0000000 -1.0000000
vn 0.0000000 0.0000000 -1.0000000
vn 0.0000000 -0.7071068 0.7071068
vn 0.0000000 -0.7071068 0.7071068
vn 0.0000000 -0.7071068 0.7071068
vn 0.0000000 -0.7071068 0.7071068
vn 0.0000000 -0.7071068 0.7071068
vn 0.0000000 -0.7071068 0.7071068
vn 0.0000000 -0.7071068 -0.7071068
vn 0.0000000 -0.7071068 -0.7071068
vn 0.0000000 -0.7071068 -0.7071068
vn 0.0000000 -0.7071068 -0.7071068
vn 0.0000000 -0.7071068 -0.7071068
vn 0.0000000 -0.7071068 -0.7071068
vn 0.0000000 -1.0000000 0.0000000
vn 0.0000000 -1.0000000 0.0000000
vn 0.0000000 -1.0000000 0.0000000
vn 0.0000000 -1.0000000 0.0000000
vn 0.0000000 -1.0000000 0.0000000
vn 0.0000000 -1.0000000 0.0000000
vn 0.0000000 -0.7071068 0.7071068
vn 0.0000000 -0.7071068 0.7071068
vn 0.0000000 -0.7071068 0.7071068
vn 0.0000000 -0.7071068 0.7071068
vn 0.0000000 -0.7071068 0.7071068
vn 0.0000000 -0.7071068 0.7071068
vn 0.0000000 -0.7071068 -0.7071068
vn 0.0000000 -0.7071068 -0.7071068
vn 0.0000000 -0.7071068 -0.7071068
vn 0.0000000 -0.7071068 -0.7071068
vn 0.0000000 -0.7071068 -0.7071068
vn 0.0000000 -0.7071068 -0.7071068
vn 0.0000000 -1.0000000 0.0000000
vn 0.0000000 -1.0000000 0.0000000
vn 0.0000000 -1.0000000 0.0000000
vn 0.0000000 -1.0000000 0.0000000
vn 0.0000000 -1.0000000 0.0000000
vn 0.0000000 -1.0000000 0.0000000
vn 0.7071068 -0.0000000 0.7071068
vn 0.7071068 -0.0000000 0.7071068
vn 0.7071068 -0.0000000 0.7071068
vn 0.7071068 -0.0000000 0.7071068
vn 0.7071068 -0.0000000 0.7071068
vn 0.7071068 -0.0000000 0.7071068
vn 0.7071068 0.0000000 -0.7071068
vn 0.7071068 0.0000000 -0.7071068
vn 0.7071068 0.0000000 -0.7071068
vn 0.7071068 0.0000000 -0.7071068
vn 0.7071068 0.0000000 -0.7071068
vn 0.7071068 0.0000000 -0.7071068
vn 1.0000000 0.0000000 0.0000000
vn 1.0000000 0.0000000 0.0000000
vn 1.0000000 0.0000000 0.0000000
vn 1.0000000 0.0000000 0.0000000
vn 1.0000000 0.0000000 0.0000000
vn 1.0000000 0.0000000 0.0000000
vn 0.0000000 0.7071068 0.7071068
vn 0.0000000 0.7071068 0.7071068
vn 0.0000000 0.7071068 0.7071068
vn 0.0000000 0.7071068 0.7071068
vn 0.0000000 0.7071068 0.7071068
vn 0.0000000 0.7071068 0.7071068
vn 0.0000000 0.7071068 -0.7071068
vn 0.0000000 0.7071068 -0.7071068
vn 0.0000000 0.7071068 -0.7071068
vn 0.0000000 0.7071068 -0.7071068
vn 0.0000000 0.7071068 -0.7071068
vn 0.0000000 0.7071068 -0.7071068
vn 0.0000000 1.0000000 0.0000000
vn 0.0000000 1.0000000 0.0000000
vn 0.0000000 1.0000000 0.0000000
vn 0.0000000 1.0000000 0.0000000
vn 0.0000000 1.0000000 0.0000000
vn 0.0000000 1.0000000 0.0000000
vn 0.0000000 0.7071068 0.7071068
vn 0.0000000 0.7071068 0.7071068
vn 0.0000000 0.7071068 0.7071068
vn 0.0000000 0.7071068 0.7071068
vn 0.0000000 0.7071068 0.7071068
vn 0.0000000 0.7071068 0.7071068
vn 0.0000000 0.7071068 -0.7071068
vn 0.0000000 0.7071068 -0.7071068
vn 0.0000000 0.7071068 -0.7071068
vn 0.0000000 0.7071068 -0.7071068
vn 0.0000000 0.7071068 -0.7071068
vn 0.0000000 0.7071068 -0.7071068
vn 0.0000000 1.0000000 0.0000000
vn 0.0000000 1.0000000 0.0000000
vn 0.0000000 1.0000000 0.0000000
vn 0.0000000 1.0000000 0.0000000
vn 0.0000000 1.0000000 0.0000000
vn 0.0000000 1.0000000 0.0000000
vn -0.7071068 0.0000000 0.7071068
vn -0.7071068 0.0000000 0.7071068
vn -0.7071068 0.0000000 0.7071068
vn -0.7071068 0.0000000 0.7071068
vn -0.7071068 0.0000000 0.7071068
vn -0.7071068 0.0000000 0.7071068
vn -0.7071068 -0.0000000 -0.7071068
vn -0.7071068 -0.0000000 -0.7071068
vn -0.7071068 -0.0000000 -0.7071068
vn -0.7071068 -0.0000000 -0.7071068
vn -0.7071068 -0.0000000 -0.7071068
vn -0.7071068 -0.0000000 -0.7071068
vn -1.0000000 0.0000000 0.0000000
vn -1.0000000 0.0000000 0.0000000
vn -1.0000000 0.0000000 0.0000000
vn -1.0000000 0.0000000 0.0000000
vn -1.0000000 0.0000000 0.0000000
vn -1.0000000 0.0000000 0.0000000
g Ribbed_hinge
f 1/1/1 2/2/2 3/3/3
g Ribbed_hinge
f 4/4/4 5/5/5 6/6/6
g Front_insert
f 7/7/7 8/8/8 9/9/9
g Front_insert
f 10/10/10 11/11/11 12/12/12
g Back_insert
f 13/13/13 14/14/14 15/15/15
g Back_insert
f 16/16/16 17/17/17 18/18/18
g Back_insert
f 19/19/19 20/20/20 21/21/21
g Back_insert
f 22/22/22 23/23/23 24/24/24
g Front_plastic_bevel
f 25/25/25 26/26/26 27/27/27
g Front_plastic_bevel
f 28/28/28 29/29/29 30/30/30
g Rear_plastic_bevel
f 31/31/31 32/32/32 33/33/33
g Rear_plastic_bevel
f 34/34/34 35/35/35 36/36/36
g Bottom
f 37/37/37 38/38/38 39/39/39
g Bottom
f 40/40/40 41/41/41 42/42/42
g Front_plastic_bevel
f 43/43/43 44/44/44 45/45/45
g Front_plastic_bevel
f 46/46/46 47/47/47 48/48/48
g Rear_plastic_bevel
f 49/49/49 50/50/50 51/51/51
g Rear_plastic_bevel
f 52/52/52 53/53/53 54/54/54
g Bottom
f 55/55/55 56/56/56 57/57/57
g Bottom
f 58/58/58 59/59/59 60/60/60
g Front_plastic_bevel
f 61/61/61 62/62/62 63/63/63
g Front_plastic_bevel
f 64/64/64 65/65/65 66/66/66
g Rear_plastic_bevel
f 67/67/67 68/68/68 69/69/69
g Rear_plastic_bevel
f 70/70/70 71/71/71 72/72/72
g Opening
f 73/73/73 74/74/74 75/75/75
g Opening
f 76/76/76 77/77/77 78/78/78
g Front_plastic_bevel
f 79/79/79 80/80/80 81/81/81
g Front_plastic_bevel
f 82/82/82 83/83/83 84/84/84
g Rear_plastic_bevel
f 85/85/85 86/86/86 87/87/87
g Rear_plastic_bevel
f 88/88/88 89/89/89 90/90/90
g Top
f 91/91/91 92/92/92 93/93/93
g Top
f 94/94/94 95/95/95 96/96/96
g Front_plastic_bevel
f 97/97/97 98/98/98 99/99/99
g Front_plastic_bevel
f 100/100/100 101/101/101 102/102/102
g Rear_plastic_bevel
f 103/103/103 104/104/104 105/105/105
g Rear_plastic_bevel
f 106/106/106 107/107/107 108/108/108
g Top
f 109/109/109 110/110/110 111/111/111
g Top
f 112/112/112 113/113/113 114/114/114
g Front_plastic_bevel
f 115/115/115 116/116/116 117/117/117
g Front_plastic_bevel
f 118/118/118 119/119/119 120/120/120
g Rear_plastic_bevel
f 121/121/121 122/122/122 123/123/123
g Rear_plastic_bevel
f 124/124/124 125/125/125 126/126/126
g Spine
f 127/127/127 128/128/128 129/129/129
g Spine
f 130/130/130 131/131/131 132/132/132
