# Genesis clamshell template / Sonic 3. Metres, +Y up, +Z front.
mtllib model.mtl
s off
usemtl Genesis_print
v -0.0650000 0.0000000 0.0120000
v 0.0650000 0.0000000 0.0120000
v 0.0675000 0.0025000 0.0120000
v -0.0650000 0.0000000 0.0120000
v 0.0675000 0.0025000 0.0120000
v 0.0675000 0.1875000 0.0120000
v -0.0650000 0.0000000 0.0120000
v 0.0675000 0.1875000 0.0120000
v 0.0650000 0.1900000 0.0120000
v -0.0650000 0.0000000 0.0120000
v 0.0650000 0.1900000 0.0120000
v -0.0650000 0.1900000 0.0120000
v -0.0650000 0.0000000 0.0120000
v -0.0650000 0.1900000 0.0120000
v -0.0675000 0.1875000 0.0120000
v -0.0650000 0.0000000 0.0120000
v -0.0675000 0.1875000 0.0120000
v -0.0675000 0.0025000 0.0120000
v -0.0675000 0.0025000 -0.0120000
v -0.0675000 0.1875000 -0.0120000
v -0.0650000 0.1900000 -0.0120000
v -0.0675000 0.0025000 -0.0120000
v -0.0650000 0.1900000 -0.0120000
v 0.0650000 0.1900000 -0.0120000
v -0.0675000 0.0025000 -0.0120000
v 0.0650000 0.1900000 -0.0120000
v 0.0675000 0.1875000 -0.0120000
v -0.0675000 0.0025000 -0.0120000
v 0.0675000 0.1875000 -0.0120000
v 0.0675000 0.0025000 -0.0120000
v -0.0675000 0.0025000 -0.0120000
v 0.0675000 0.0025000 -0.0120000
v 0.0650000 0.0000000 -0.0120000
v -0.0675000 0.0025000 -0.0120000
v 0.0650000 0.0000000 -0.0120000
v -0.0650000 0.0000000 -0.0120000
v -0.0650000 0.0000000 -0.0120000
v 0.0650000 0.0000000 -0.0120000
v 0.0650000 0.0000000 0.0120000
v -0.0650000 0.0000000 -0.0120000
v 0.0650000 0.0000000 0.0120000
v -0.0650000 0.0000000 0.0120000
v 0.0650000 0.0000000 -0.0120000
v 0.0675000 0.0025000 -0.0120000
v 0.0675000 0.0025000 0.0120000
v 0.0650000 0.0000000 -0.0120000
v 0.0675000 0.0025000 0.0120000
v 0.0650000 0.0000000 0.0120000
v 0.0675000 0.0025000 -0.0120000
v 0.0675000 0.1875000 -0.0120000
v 0.0675000 0.1875000 0.0120000
v 0.0675000 0.0025000 -0.0120000
v 0.0675000 0.1875000 0.0120000
v 0.0675000 0.0025000 0.0120000
v 0.0675000 0.1875000 -0.0120000
v 0.0650000 0.1900000 -0.0120000
v 0.0650000 0.1900000 0.0120000
v 0.0675000 0.1875000 -0.0120000
v 0.0650000 0.1900000 0.0120000
v 0.0675000 0.1875000 0.0120000
v 0.0650000 0.1900000 -0.0120000
v -0.0650000 0.1900000 -0.0120000
v -0.0650000 0.1900000 0.0120000
v 0.0650000 0.1900000 -0.0120000
v -0.0650000 0.1900000 0.0120000
v 0.0650000 0.1900000 0.0120000
v -0.0650000 0.1900000 -0.0120000
v -0.0675000 0.1875000 -0.0120000
v -0.0675000 0.1875000 0.0120000
v -0.0650000 0.1900000 -0.0120000
v -0.0675000 0.1875000 0.0120000
v -0.0650000 0.1900000 0.0120000
v -0.0675000 0.1875000 -0.0120000
v -0.0675000 0.0025000 -0.0120000
v -0.0675000 0.0025000 0.0120000
v -0.0675000 0.1875000 -0.0120000
v -0.0675000 0.0025000 0.0120000
v -0.0675000 0.1875000 0.0120000
v -0.0675000 0.0025000 -0.0120000
v -0.0650000 0.0000000 -0.0120000
v -0.0650000 0.0000000 0.0120000
v -0.0675000 0.0025000 -0.0120000
v -0.0650000 0.0000000 0.0120000
v -0.0675000 0.0025000 0.0120000
vt 0.0274884 0.3632812
vt 0.4412616 0.3632812
vt 0.4492188 0.3714021
vt 0.0274884 0.3632812
vt 0.4492188 0.3714021
vt 0.4492188 0.9723479
vt 0.0274884 0.3632812
vt 0.4492188 0.9723479
vt 0.4412616 0.9804688
vt 0.0274884 0.3632812
vt 0.4412616 0.9804688
vt 0.0274884 0.9804688
vt 0.0274884 0.3632812
vt 0.0274884 0.9804688
vt 0.0195312 0.9723479
vt 0.0274884 0.3632812
vt 0.0195312 0.9723479
vt 0.0195312 0.3714021
vt 0.9023438 0.3714021
vt 0.9023438 0.9723479
vt 0.8943866 0.9804688
vt 0.9023438 0.3714021
vt 0.8943866 0.9804688
vt 0.4806134 0.9804688
vt 0.9023438 0.3714021
vt 0.4806134 0.9804688
vt 0.4726562 0.9723479
vt 0.9023438 0.3714021
vt 0.4726562 0.9723479
vt 0.4726562 0.3714021
vt 0.9023438 0.3714021
vt 0.4726562 0.3714021
vt 0.4806134 0.3632812
vt 0.9023438 0.3714021
vt 0.4806134 0.3632812
vt 0.8943866 0.3632812
vt 0.0195312 0.0820312
vt 0.4492188 0.0820312
vt 0.4492188 0.1367188
vt 0.0195312 0.0820312
vt 0.4492188 0.1367188
vt 0.0195312 0.1367188
vt 0.6757812 0.1757812
vt 0.7304688 0.1757812
vt 0.7304688 0.2304688
vt 0.6757812 0.1757812
vt 0.7304688 0.2304688
vt 0.6757812 0.2304688
vt 0.0195312 0.2695312
vt 0.6367188 0.2695312
vt 0.6367188 0.3242188
vt 0.0195312 0.2695312
vt 0.6367188 0.3242188
vt 0.0195312 0.3242188
vt 0.6757812 0.1757812
vt 0.7304688 0.1757812
vt 0.7304688 0.2304688
vt 0.6757812 0.1757812
vt 0.7304688 0.2304688
vt 0.6757812 0.2304688
vt 0.0195312 0.1757812
vt 0.4492188 0.1757812
vt 0.4492188 0.2304688
vt 0.0195312 0.1757812
vt 0.4492188 0.2304688
vt 0.0195312 0.2304688
vt 0.6757812 0.1757812
vt 0.7304688 0.1757812
vt 0.7304688 0.2304688
vt 0.6757812 0.1757812
vt 0.7304688 0.2304688
vt 0.6757812 0.2304688
vt 0.9257812 0.9804688
vt 0.9257812 0.3632812
vt 0.9804688 0.3632812
vt 0.9257812 0.9804688
vt 0.9804688 0.3632812
vt 0.9804688 0.9804688
vt 0.6757812 0.1757812
vt 0.7304688 0.1757812
vt 0.7304688 0.2304688
vt 0.6757812 0.1757812
vt 0.7304688 0.2304688
vt 0.6757812 0.2304688
vn 0.0000000 0.0000000 1.0000000
vn 0.0000000 0.0000000 1.0000000
vn 0.0000000 0.0000000 1.0000000
vn 0.0000000 0.0000000 1.0000000
vn 0.0000000 0.0000000 1.0000000
vn 0.0000000 0.0000000 1.0000000
vn 0.0000000 0.0000000 1.0000000
vn 0.0000000 0.0000000 1.0000000
vn 0.0000000 0.0000000 1.0000000
vn 0.0000000 0.0000000 1.0000000
vn 0.0000000 0.0000000 1.0000000
vn 0.0000000 0.0000000 1.0000000
vn 0.0000000 0.0000000 1.0000000
vn 0.0000000 0.0000000 1.0000000
vn 0.0000000 0.0000000 1.0000000
vn 0.0000000 0.0000000 1.0000000
vn 0.0000000 0.0000000 1.0000000
vn 0.0000000 0.0000000 1.0000000
vn 0.0000000 0.0000000 -1.0000000
vn 0.0000000 0.0000000 -1.0000000
vn 0.0000000 0.0000000 -1.0000000
vn 0.0000000 0.0000000 -1.0000000
vn 0.0000000 0.0000000 -1.0000000
vn 0.0000000 0.0000000 -1.0000000
vn 0.0000000 0.0000000 -1.0000000
vn 0.0000000 0.0000000 -1.0000000
vn 0.0000000 0.0000000 -1.0000000
vn 0.0000000 0.0000000 -1.0000000
vn 0.0000000 0.0000000 -1.0000000
vn 0.0000000 0.0000000 -1.0000000
vn 0.0000000 0.0000000 -1.0000000
vn 0.0000000 0.0000000 -1.0000000
vn 0.0000000 0.0000000 -1.0000000
vn 0.0000000 0.0000000 -1.0000000
vn 0.0000000 0.0000000 -1.0000000
vn 0.0000000 0.0000000 -1.0000000
vn 0.0000000 -1.0000000 0.0000000
vn 0.0000000 -1.0000000 0.0000000
vn 0.0000000 -1.0000000 0.0000000
vn 0.0000000 -1.0000000 0.0000000
vn 0.0000000 -1.0000000 0.0000000
vn 0.0000000 -1.0000000 0.0000000
vn 0.7071068 -0.7071068 0.0000000
vn 0.7071068 -0.7071068 0.0000000
vn 0.7071068 -0.7071068 0.0000000
vn 0.7071068 -0.7071068 0.0000000
vn 0.7071068 -0.7071068 0.0000000
vn 0.7071068 -0.7071068 0.0000000
vn 1.0000000 0.0000000 0.0000000
vn 1.0000000 0.0000000 0.0000000
vn 1.0000000 0.0000000 0.0000000
vn 1.0000000 0.0000000 0.0000000
vn 1.0000000 0.0000000 0.0000000
vn 1.0000000 0.0000000 0.0000000
vn 0.7071068 0.7071068 0.0000000
vn 0.7071068 0.7071068 0.0000000
vn 0.7071068 0.7071068 0.0000000
vn 0.7071068 0.7071068 0.0000000
vn 0.7071068 0.7071068 0.0000000
vn 0.7071068 0.7071068 0.0000000
vn 0.0000000 1.0000000 0.0000000
vn 0.0000000 1.0000000 0.0000000
vn 0.0000000 1.0000000 0.0000000
vn 0.0000000 1.0000000 0.0000000
vn 0.0000000 1.0000000 0.0000000
vn 0.0000000 1.0000000 0.0000000
vn -0.7071068 0.7071068 0.0000000
vn -0.7071068 0.7071068 0.0000000
vn -0.7071068 0.7071068 0.0000000
vn -0.7071068 0.7071068 0.0000000
vn -0.7071068 0.7071068 0.0000000
vn -0.7071068 0.7071068 0.0000000
vn -1.0000000 0.0000000 0.0000000
vn -1.0000000 0.0000000 0.0000000
vn -1.0000000 0.0000000 0.0000000
vn -1.0000000 0.0000000 0.0000000
vn -1.0000000 0.0000000 0.0000000
vn -1.0000000 0.0000000 0.0000000
vn -0.7071068 -0.7071068 0.0000000
vn -0.7071068 -0.7071068 0.0000000
vn -0.7071068 -0.7071068 0.0000000
vn -0.7071068 -0.7071068 0.0000000
vn -0.7071068 -0.7071068 0.0000000
vn -0.7071068 -0.7071068 0.0000000
g Front
f 1/1/1 2/2/2 3/3/3
g Front
f 4/4/4 5/5/5 6/6/6
g Front
f 7/7/7 8/8/8 9/9/9
g Front
f 10/10/10 11/11/11 12/12/12
g Front
f 13/13/13 14/14/14 15/15/15
g Front
f 16/16/16 17/17/17 18/18/18
g Back
f 19/19/19 20/20/20 21/21/21
g Back
f 22/22/22 23/23/23 24/24/24
g Back
f 25/25/25 26/26/26 27/27/27
g Back
f 28/28/28 29/29/29 30/30/30
g Back
f 31/31/31 32/32/32 33/33/33
g Back
f 34/34/34 35/35/35 36/36/36
g Bottom
f 37/37/37 38/38/38 39/39/39
g Bottom
f 40/40/40 41/41/41 42/42/42
g Corner
f 43/43/43 44/44/44 45/45/45
g Corner
f 46/46/46 47/47/47 48/48/48
g Opening
f 49/49/49 50/50/50 51/51/51
g Opening
f 52/52/52 53/53/53 54/54/54
g Corner
f 55/55/55 56/56/56 57/57/57
g Corner
f 58/58/58 59/59/59 60/60/60
g Top
f 61/61/61 62/62/62 63/63/63
g Top
f 64/64/64 65/65/65 66/66/66
g Corner
f 67/67/67 68/68/68 69/69/69
g Corner
f 70/70/70 71/71/71 72/72/72
g Spine
f 73/73/73 74/74/74 75/75/75
g Spine
f 76/76/76 77/77/77 78/78/78
g Corner
f 79/79/79 80/80/80 81/81/81
g Corner
f 82/82/82 83/83/83 84/84/84
