# SNES carton / Street Fighter II Turbo. Metres, +Y up, +Z front.
mtllib model.mtl
s off
usemtl SNES_print
v -0.0900000 0.0000000 0.0125000
v 0.0900000 0.0000000 0.0125000
v 0.0900000 0.1260000 0.0125000
v -0.0900000 0.0000000 0.0125000
v 0.0900000 0.1260000 0.0125000
v -0.0900000 0.1260000 0.0125000
v -0.0900000 0.1260000 -0.0125000
v 0.0900000 0.1260000 -0.0125000
v 0.0900000 0.0000000 -0.0125000
v -0.0900000 0.1260000 -0.0125000
v 0.0900000 0.0000000 -0.0125000
v -0.0900000 0.0000000 -0.0125000
v -0.0900000 0.0000000 -0.0125000
v 0.0900000 0.0000000 -0.0125000
v 0.0900000 0.0000000 0.0125000
v -0.0900000 0.0000000 -0.0125000
v 0.0900000 0.0000000 0.0125000
v -0.0900000 0.0000000 0.0125000
v 0.0900000 0.0000000 -0.0125000
v 0.0900000 0.1260000 -0.0125000
v 0.0900000 0.1260000 0.0125000
v 0.0900000 0.0000000 -0.0125000
v 0.0900000 0.1260000 0.0125000
v 0.0900000 0.0000000 0.0125000
v 0.0900000 0.1260000 -0.0125000
v -0.0900000 0.1260000 -0.0125000
v -0.0900000 0.1260000 0.0125000
v 0.0900000 0.1260000 -0.0125000
v -0.0900000 0.1260000 0.0125000
v 0.0900000 0.1260000 0.0125000
v -0.0900000 0.1260000 -0.0125000
v -0.0900000 0.0000000 -0.0125000
v -0.0900000 0.0000000 0.0125000
v -0.0900000 0.1260000 -0.0125000
v -0.0900000 0.0000000 0.0125000
v -0.0900000 0.1260000 0.0125000
vt 0.0195312 0.6132812
vt 0.5117188 0.6132812
vt 0.5117188 0.9804688
vt 0.0195312 0.6132812
vt 0.5117188 0.9804688
vt 0.0195312 0.9804688
vt 0.5117188 0.5742188
vt 0.0195312 0.5742188
vt 0.0195312 0.2070312
vt 0.5117188 0.5742188
vt 0.0195312 0.2070312
vt 0.5117188 0.2070312
vt 0.0195312 0.0195312
vt 0.5117188 0.0195312
vt 0.5117188 0.0742188
vt 0.0195312 0.0195312
vt 0.5117188 0.0742188
vt 0.0195312 0.0742188
vt 0.5507812 0.9804688
vt 0.5507812 0.6132812
vt 0.6054688 0.6132812
vt 0.5507812 0.9804688
vt 0.6054688 0.6132812
vt 0.6054688 0.9804688
vt 0.0195312 0.0976562
vt 0.5117188 0.0976562
vt 0.5117188 0.1523438
vt 0.0195312 0.0976562
vt 0.5117188 0.1523438
vt 0.0195312 0.1523438
vt 0.6289062 0.9804688
vt 0.6289062 0.6132812
vt 0.6835938 0.6132812
vt 0.6289062 0.9804688
vt 0.6835938 0.6132812
vt 0.6835938 0.9804688
vn 0.0000000 0.0000000 1.0000000
vn 0.0000000 0.0000000 1.0000000
vn 0.0000000 0.0000000 1.0000000
vn 0.0000000 0.0000000 1.0000000
vn 0.0000000 0.0000000 1.0000000
vn 0.0000000 0.0000000 1.0000000
vn 0.0000000 0.0000000 -1.0000000
vn 0.0000000 0.0000000 -1.0000000
vn 0.0000000 0.0000000 -1.0000000
vn 0.0000000 0.0000000 -1.0000000
vn 0.0000000 0.0000000 -1.0000000
vn 0.0000000 0.0000000 -1.0000000
vn 0.0000000 -1.0000000 0.0000000
vn 0.0000000 -1.0000000 0.0000000
vn 0.0000000 -1.0000000 0.0000000
vn 0.0000000 -1.0000000 0.0000000
vn 0.0000000 -1.0000000 0.0000000
vn 0.0000000 -1.0000000 0.0000000
vn 1.0000000 0.0000000 0.0000000
vn 1.0000000 0.0000000 0.0000000
vn 1.0000000 0.0000000 0.0000000
vn 1.0000000 0.0000000 0.0000000
vn 1.0000000 0.0000000 0.0000000
vn 1.0000000 0.0000000 0.0000000
vn 0.0000000 1.0000000 0.0000000
vn 0.0000000 1.0000000 0.0000000
vn 0.0000000 1.0000000 0.0000000
vn 0.0000000 1.0000000 0.0000000
vn 0.0000000 1.0000000 0.0000000
vn 0.0000000 1.0000000 0.0000000
vn -1.0000000 0.0000000 0.0000000
vn -1.0000000 0.0000000 0.0000000
vn -1.0000000 0.0000000 0.0000000
vn -1.0000000 0.0000000 0.0000000
vn -1.0000000 0.0000000 0.0000000
vn -1.0000000 0.0000000 0.0000000
g Front
f 1/1/1 2/2/2 3/3/3
g Front
f 4/4/4 5/5/5 6/6/6
g Back
f 7/7/7 8/8/8 9/9/9
g Back
f 10/10/10 11/11/11 12/12/12
g Bottom
f 13/13/13 14/14/14 15/15/15
g Bottom
f 16/16/16 17/17/17 18/18/18
g Opening
f 19/19/19 20/20/20 21/21/21
g Opening
f 22/22/22 23/23/23 24/24/24
g Top
f 25/25/25 26/26/26 27/27/27
g Top
f 28/28/28 29/29/29 30/30/30
g Spine
f 31/31/31 32/32/32 33/33/33
g Spine
f 34/34/34 35/35/35 36/36/36
